<svg xmlns="http://www.w3.org/2000/svg" viewBox="0 0 24 24" width="24" height="24" aria-hidden="true" focusable="false">
  <path fill="#FFFFFF" d="M16.365 1.43c-.972.06-2.18.61-2.88 1.38-.62.68-1.17 1.77-.97 2.76 1.06.05 2.39-.62 3.08-1.39.66-.72 1.17-1.83.77-2.75zM12.02 4.01c-.79 1.03-1.86 1.58-3.35 1.58-2.1 0-3.91-1.08-4.94-2.98 0 0-3.26 4.58.24 9.18 1.63 1.46 3.03 2.6 5.02 2.6 1.94 0 2.9-1.02 5.17-1.02 2.22 0 2.98 1.02 5.07 1 0 0 1.86-2.67 2.98-5.3-3.61-1.35-3.81-6.08-1.66-8.7-1.44-1.03-3.46-1.8-5.91-1.68-1.31.07-2.26.4-3.03.82z"/>
</svg>