<svg xmlns="http://www.w3.org/2000/svg" viewBox="0 0 24 24" width="24" height="24" aria-hidden="true" focusable="false">
  <g>
    <path fill="#4285F4" d="M12 11.5v2.6h3.8c-.16.96-.88 2.72-3.8 2.72-2.86 0-5.2-2.34-5.2-5.2S9.14 6.4 12 6.4c1.36 0 2.26.57 2.95 1.25l1.59-1.63C15.54 4.36 13.88 3.4 12 3.4c-4.42 0-8 3.58-8 8s3.58 8 8 8c4.67 0 7.76-3.26 7.76-7.9 0-.53-.06-1.03-.18-1.5H12z"/>
    <path fill="#34A853" d="M7.6 15.18c.78 1.8 2.6 3.08 4.4 3.08 3 0 4.5-1.94 4.9-2.87H12.7c-.8 0-3.1.2-5.1-.21z"/>
    <path fill="#FBBC05" d="M11 6.76c.96 0 1.64.35 2.2.85l1.68-1.67C15.05 5 13.9 4.42 12 4.42 9.2 4.42 7 6.58 7 9.38c0 0 1.5-2.62 4-2.62z"/>
    <path fill="#EA4335" d="M12.7 19.4c2.6 0 3.6-1.65 4-2.7H11.2c-.6 0-1.8-.03-3.5-.9 1.1 1.55 2.9 3.6 4 3.6z"/>
  </g>
</svg>